<svg width="317" height="338" viewBox="0 0 317 338" fill="none" xmlns="http://www.w3.org/2000/svg">
<path opacity="0.5" d="M217.394 220.231C217.394 214.924 215.813 211.386 212.651 209.617C209.621 207.848 205.141 206.964 199.212 206.964H114.859C110.801 206.964 107.511 203.674 107.511 199.616V199.616C107.511 195.558 110.801 192.268 114.859 192.268H199.212C220.82 192.268 231.623 201.589 231.623 220.231C231.623 230.708 228.659 238.26 222.73 242.887C216.801 247.513 208.962 249.826 199.212 249.826H114.859C110.801 249.826 107.511 246.536 107.511 242.478V242.478C107.511 238.42 110.801 235.13 114.859 235.13H199.212C211.333 235.13 217.394 230.164 217.394 220.231ZM99.606 330.885C99.606 334.815 96.4206 338 92.4913 338V338C88.5619 338 85.3766 334.815 85.3766 330.885V98.1739C85.3766 92.6511 89.8537 88.1739 95.3766 88.1739H199.212C208.171 88.1739 215.813 91.0314 222.137 96.7464C228.461 102.325 231.623 109.333 231.623 117.769C231.623 128.927 228.659 137.023 222.73 142.058C216.801 146.957 208.962 149.406 199.212 149.406H114.859C110.801 149.406 107.511 146.116 107.511 142.058V142.058C107.511 138 110.801 134.71 114.859 134.71H199.212C211.333 134.71 217.394 129.063 217.394 117.769C217.394 113.143 215.681 109.537 212.256 106.952C208.83 104.23 204.482 102.87 199.212 102.87H109.606C104.083 102.87 99.606 107.347 99.606 112.87V330.885ZM107.511 171.449C107.511 167.391 110.801 164.101 114.859 164.101H199.212C212.256 164.101 223.257 160.087 232.216 152.059C241.307 143.895 245.853 132.465 245.853 117.769C245.853 105.931 241.11 95.5898 231.623 86.7452C222.269 77.9006 211.465 73.4783 199.212 73.4783H81.1471C75.6243 73.4783 71.1471 77.9554 71.1471 83.4783V330.885C71.1471 334.815 67.9618 338 64.0324 338V338C60.1031 338 56.9177 334.815 56.9177 330.885V68.7826C56.9177 63.2598 61.3949 58.7826 66.9177 58.7826H199.212C215.418 58.7826 229.581 64.7017 241.703 76.5399C253.956 88.242 260.082 101.985 260.082 117.769C260.082 130.152 257.25 140.969 251.584 150.222C249.995 152.88 248.243 155.363 246.328 157.672C240.81 164.326 241.848 177.206 247.844 183.433C256.003 191.905 260.082 203.491 260.082 218.19C260.082 236.695 254.153 251.527 242.295 262.685C230.438 273.707 216.076 279.217 199.212 279.217H114.859C110.801 279.217 107.511 275.928 107.511 271.87V271.87C107.511 267.812 110.801 264.522 114.859 264.522H199.212C212.256 264.522 223.257 260.508 232.216 252.479C241.307 244.315 245.853 232.885 245.853 218.19C245.853 208.256 242.427 199.48 235.576 191.86C228.893 184.427 219.138 180.036 206.312 178.689C205.666 178.621 205.013 178.631 204.365 178.673C203.089 178.756 201.371 178.797 199.212 178.797H114.859C110.801 178.797 107.511 175.507 107.511 171.449V171.449ZM288.541 117.769C288.541 134.059 283.772 149.005 274.235 162.608C271.397 166.656 271.434 172.127 274.333 176.132C283.805 189.212 288.541 203.232 288.541 218.19C288.541 235.198 284.391 250.711 276.09 264.726C267.922 278.605 256.986 289.423 243.284 297.179C229.713 304.799 215.022 308.609 199.212 308.609H114.859C110.801 308.609 107.511 305.319 107.511 301.261V301.261C107.511 297.203 110.801 293.913 114.859 293.913H199.212C219.766 293.913 237.421 286.837 252.177 272.686C266.933 258.399 274.312 240.233 274.312 218.19C274.312 210.298 272.335 201.589 268.383 192.064C266.297 186.79 263.76 182.206 260.771 178.311C257.003 173.399 256.498 166.116 260.238 161.182C269.621 148.806 274.312 134.335 274.312 117.769C274.312 97.903 266.802 80.69 251.782 66.1304C236.762 51.4348 219.239 44.087 199.212 44.087H52.6883C47.1654 44.087 42.6883 48.5641 42.6883 54.087V330.885C42.6883 334.815 39.5029 338 35.5736 338V338C31.6442 338 28.4589 334.815 28.4589 330.885V39.3913C28.4589 33.8685 32.936 29.3913 38.4588 29.3913H199.212C214.891 29.3913 229.581 33.4054 243.284 41.4336C257.118 49.3257 268.119 60.1433 276.288 73.8865C284.457 87.4936 288.541 102.121 288.541 117.769ZM289.724 176.445C287.253 172.634 287.086 167.688 289.47 163.823C298.337 149.449 302.771 134.098 302.771 117.769C302.771 99.3998 298.027 82.3229 288.541 66.5387C279.187 50.6184 266.538 38.0318 250.596 28.779C234.654 19.3901 217.526 14.6957 199.212 14.6957H24.2294C18.7066 14.6957 14.2294 19.1728 14.2294 24.6957V330.885C14.2294 334.815 11.0441 338 7.11471 338V338C3.18536 338 0 334.815 0 330.885V9.99999C0 4.47715 4.47715 0 10 0H199.212C220.029 0 239.463 5.30677 257.513 15.9203C275.695 26.5338 290.122 40.9573 300.794 59.1908C311.598 77.2882 317 96.8144 317 117.769C317 135.209 312.843 150.787 304.53 164.504C302.323 168.146 302.275 172.745 304.486 176.384C312.829 190.111 317 204.047 317 218.19C317 236.423 313.838 253.16 307.514 268.4C301.189 283.504 292.625 296.09 281.822 306.159C271.15 316.229 258.699 324.053 244.469 329.632C230.24 335.211 215.154 338 199.212 338H114.859C110.801 338 107.511 334.71 107.511 330.652V330.652C107.511 326.594 110.801 323.304 114.859 323.304H199.212C213.046 323.304 226.287 320.651 238.936 315.344C251.584 309.901 262.586 302.554 271.94 293.301C281.295 284.048 288.739 272.89 294.272 259.827C299.938 246.765 302.771 232.885 302.771 218.19C302.771 211.658 301.255 203.834 298.225 194.717C296.141 188.064 293.307 181.973 289.724 176.445Z" fill="#F7C873"/>
</svg>
