<svg width="46" height="49" viewBox="0 0 46 49" fill="none" xmlns="http://www.w3.org/2000/svg">
<path d="M31.5461 31.9269C31.5461 31.1576 31.3167 30.6447 30.8579 30.3883C30.4181 30.1318 29.7681 30.0036 28.9077 30.0036H16.6662C16.0779 30.0036 15.601 29.5267 15.601 28.9384C15.601 28.3501 16.0779 27.8732 16.6662 27.8732H28.9077C32.0432 27.8732 33.611 29.2244 33.611 31.9269C33.611 33.4459 33.1808 34.5407 32.3204 35.2114C31.4601 35.882 30.3225 36.2174 28.9077 36.2174H16.6662C16.0779 36.2174 15.601 35.7405 15.601 35.1522C15.601 34.5639 16.0779 34.087 16.6662 34.087H28.9077C30.6667 34.087 31.5461 33.367 31.5461 31.9269ZM14.4539 47.9676C14.4539 48.5378 13.9916 49 13.4214 49C12.8513 49 12.389 48.5378 12.389 47.9676V22.7826C12.389 17.2598 16.8662 12.7826 22.389 12.7826H28.9077C30.2078 12.7826 31.3167 13.1969 32.2344 14.0254C33.1521 14.8341 33.611 15.85 33.611 17.0731C33.611 18.6906 33.1808 19.8643 32.3204 20.5942C31.4601 21.3043 30.3225 21.6594 28.9077 21.6594H16.6662C16.0779 21.6594 15.601 21.1825 15.601 20.5942C15.601 20.0059 16.0779 19.529 16.6662 19.529H28.9077C30.6667 19.529 31.5461 18.7103 31.5461 17.0731C31.5461 16.4024 31.2976 15.8796 30.8005 15.5048C30.3034 15.1103 29.6725 14.913 28.9077 14.913H24.4539C18.931 14.913 14.4539 19.3902 14.4539 24.913V47.9676ZM15.601 24.8551C15.601 24.2668 16.0779 23.7899 16.6662 23.7899H28.9077C30.8005 23.7899 32.3969 23.2079 33.697 22.0441C35.0162 20.8605 35.6758 19.2035 35.6758 17.0731C35.6758 15.3569 34.9875 13.8577 33.611 12.5755C32.2535 11.2933 30.6858 10.6522 28.9077 10.6522H20.3242C14.8013 10.6522 10.3242 15.1293 10.3242 20.6522V47.9676C10.3242 48.5378 9.86196 49 9.29177 49C8.72158 49 8.25935 48.5378 8.25935 47.9676V18.5217C8.25935 12.9989 12.7365 8.52174 18.2594 8.52174H28.9077C31.2593 8.52174 33.3146 9.37983 35.0736 11.096C36.8516 12.7925 37.7406 14.7848 37.7406 17.0731C37.7406 18.8682 37.3296 20.4364 36.5075 21.7778C35.6013 23.2916 35.8605 26.1271 36.7674 27.6406C37.4162 28.7234 37.7406 30.0536 37.7406 31.631C37.7406 34.3138 36.8803 36.464 35.1596 38.0815C33.4389 39.6793 31.3549 40.4783 28.9077 40.4783H16.6662C16.0779 40.4783 15.601 40.0014 15.601 39.413C15.601 38.8247 16.0779 38.3478 16.6662 38.3478H28.9077C30.8005 38.3478 32.3969 37.7659 33.697 36.6021C35.0162 35.4185 35.6758 33.7615 35.6758 31.631C35.6758 30.191 35.1787 28.9187 34.1845 27.814C33.3477 26.8842 32.179 26.2828 30.6784 26.0098C30.0961 25.9039 29.4996 25.9203 28.9077 25.9203H16.6662C16.0779 25.9203 15.601 25.4434 15.601 24.8551ZM41.8703 17.0731C41.8703 17.2032 41.8682 17.3326 41.864 17.4615C41.7181 21.9398 41.8703 27.1504 41.8703 31.631C41.8703 34.0968 41.2681 36.3456 40.0636 38.3774C38.8782 40.3895 37.2914 41.9577 35.303 43.0821C33.3337 44.1868 31.202 44.7391 28.9077 44.7391H16.6662C16.0779 44.7391 15.601 44.2622 15.601 43.6739C15.601 43.0856 16.0779 42.6087 16.6662 42.6087H28.9077C31.8903 42.6087 34.4522 41.5829 36.5935 39.5314C38.7348 37.4601 39.8055 34.8267 39.8055 31.631C39.8055 30.4869 39.5187 29.2244 38.9451 27.8436C38.1748 25.8976 38.076 23.3166 38.9277 21.4048C39.5129 20.0914 39.8055 18.6475 39.8055 17.0731C39.8055 14.193 38.7157 11.6977 36.5362 9.58696C34.3566 7.45652 31.8138 6.3913 28.9077 6.3913H16.1945C10.6717 6.3913 6.19451 10.8685 6.19451 16.3913V47.9676C6.19451 48.5378 5.73228 49 5.16209 49C4.59191 49 4.12968 48.5378 4.12968 47.9676V14.2609C4.12968 8.73802 8.60683 4.26087 14.1297 4.26087H28.9077C31.1829 4.26087 33.3146 4.84279 35.303 6.00664C37.3105 7.15076 38.9069 8.719 40.0923 10.7114C41.2776 12.684 41.8703 14.8046 41.8703 17.0731ZM43.2756 28.2283C42.5618 25.952 42.4881 23.365 43.2652 21.1096C43.7118 19.8133 43.9352 18.4678 43.9352 17.0731C43.9352 14.41 43.2469 11.9344 41.8703 9.64614C40.5129 7.33816 38.6775 5.51349 36.3641 4.1721C34.0507 2.81099 31.5653 2.13043 28.9077 2.13043H12.0648C6.54199 2.13043 2.06484 6.60759 2.06484 12.1304V47.9676C2.06484 48.5378 1.60261 49 1.03242 49C0.46223 49 0 48.5378 0 47.9676V10C0 4.47715 4.47715 0 10 0H28.9077C31.9285 0 34.7485 0.769324 37.3678 2.30797C40.0062 3.84662 42.0997 5.9376 43.6484 8.58092C45.2161 11.2045 46 14.0352 46 17.0731C46 17.4157 45.9889 17.7535 45.9668 18.0862C45.6836 22.3387 45.8643 27.0519 45.9951 31.3118C45.9984 31.4182 46 31.5246 46 31.631C46 34.2744 45.5411 36.7007 44.6234 38.91C43.7057 41.0996 42.463 42.9243 40.8953 44.3841C39.3466 45.8438 37.5399 46.9781 35.4751 47.7868C33.4102 48.5956 31.2211 49 28.9077 49H16.6662C16.0779 49 15.601 48.5231 15.601 47.9348C15.601 47.3465 16.0779 46.8696 16.6662 46.8696H28.9077C30.9152 46.8696 32.8367 46.4849 34.6721 45.7156C36.5075 44.9265 38.1039 43.8613 39.4613 42.5199C40.8188 41.1785 41.899 39.561 42.702 37.6673C43.5241 35.7736 43.9352 33.7615 43.9352 31.631C43.9352 30.6842 43.7153 29.5499 43.2756 28.2283Z" fill="#F8EEE2"/>
</svg>
