<svg width="455" height="274" viewBox="0 0 455 274" fill="none" xmlns="http://www.w3.org/2000/svg">
<g filter="url(#filter0_d_264_2865)">
<rect x="18" y="18.2874" width="405" height="223.355" rx="18.8372" fill="#07617D"/>
</g>
<path d="M161.015 160.719C161.015 157.494 160.048 155.345 158.114 154.27C156.261 153.195 153.521 152.658 149.895 152.658H98.2737C95.8079 152.658 93.809 150.659 93.809 148.193C93.809 145.727 95.8079 143.729 98.2737 143.729H149.895C163.111 143.729 169.718 149.392 169.718 160.719C169.718 167.085 167.905 171.674 164.279 174.485C160.653 177.296 155.858 178.701 149.895 178.701H98.2737C95.8079 178.701 93.809 176.702 93.809 174.237C93.809 171.771 95.8079 169.772 98.2737 169.772H149.895C157.309 169.772 161.015 166.754 161.015 160.719ZM88.9741 227.925C88.9741 230.329 87.0258 232.277 84.6226 232.277C82.2193 232.277 80.2711 230.329 80.2711 227.925V94.8415C80.2711 86.9098 86.701 80.4798 94.6328 80.4798H149.895C155.375 80.4798 160.048 82.2161 163.916 85.6885C167.784 89.0783 169.718 93.3363 169.718 98.4623C169.718 105.242 167.905 110.161 164.279 113.22C160.653 116.197 155.858 117.685 149.895 117.685H98.2737C95.8079 117.685 93.809 115.686 93.809 113.22C93.809 110.755 95.8079 108.756 98.2737 108.756H149.895C157.309 108.756 161.015 105.325 161.015 98.4623C161.015 95.6512 159.968 93.4603 157.873 91.8894C155.777 90.2358 153.118 89.409 149.895 89.409H103.336C95.404 89.409 88.9741 95.839 88.9741 103.771V227.925ZM93.809 131.079C93.809 128.613 95.8079 126.614 98.2737 126.614H149.895C157.873 126.614 164.601 124.175 170.081 119.297C175.641 114.336 178.421 107.392 178.421 98.4623C178.421 91.2693 175.52 84.9858 169.718 79.6117C163.997 74.2376 157.389 71.5506 149.895 71.5506H85.9298C77.9981 71.5506 71.5681 77.9805 71.5681 85.9123V227.925C71.5681 230.329 69.6199 232.277 67.2166 232.277C64.8134 232.277 62.8651 230.329 62.8651 227.925V76.9831C62.8651 69.0513 69.2951 62.6213 77.2268 62.6213H149.895C159.807 62.6213 168.469 66.2178 175.883 73.4108C183.377 80.5212 187.124 88.8716 187.124 98.4623C187.124 105.986 185.392 112.559 181.927 118.181C178.114 124.514 179.2 136.415 183.017 142.745C185.755 147.285 187.124 152.863 187.124 159.479C187.124 170.723 183.498 179.735 176.246 186.514C168.993 193.211 160.21 196.56 149.895 196.56H98.2737C95.8079 196.56 93.809 194.561 93.809 192.095C93.809 189.63 95.8079 187.631 98.2737 187.631H149.895C157.873 187.631 164.601 185.192 170.081 180.314C175.641 175.353 178.421 168.408 178.421 159.479C178.421 153.443 176.326 148.11 172.136 143.481C168.187 139.117 162.484 136.479 155.028 135.567C154.108 135.455 153.178 135.473 152.252 135.507C151.596 135.531 150.81 135.543 149.895 135.543H98.2737C95.8079 135.543 93.809 133.545 93.809 131.079ZM204.53 98.4623C204.53 105.964 202.855 112.997 199.504 119.561C196.26 125.916 196.327 133.701 199.654 140.014C202.905 146.182 204.53 152.67 204.53 159.479C204.53 169.813 201.992 179.239 196.915 187.755C191.919 196.188 185.231 202.761 176.85 207.473C168.55 212.103 159.565 214.418 149.895 214.418H98.2737C95.8079 214.418 93.809 212.419 93.809 209.954C93.809 207.488 95.8079 205.489 98.2737 205.489H149.895C162.466 205.489 173.264 201.19 182.289 192.591C191.315 183.91 195.827 172.873 195.827 159.479C195.827 154.683 194.618 149.392 192.201 143.605C188.956 135.454 188.542 124.622 192.128 116.617C194.594 111.112 195.827 105.061 195.827 98.4623C195.827 86.3913 191.234 75.9325 182.048 67.086C172.861 58.1567 162.144 53.6921 149.895 53.6921H68.5239C60.5921 53.6921 54.1622 60.1221 54.1622 68.0538V227.925C54.1622 230.329 52.2139 232.277 49.8107 232.277C47.4074 232.277 45.4592 230.329 45.4592 227.925V59.1246C45.4592 51.1929 51.8891 44.7629 59.8209 44.7629H149.895C159.484 44.7629 168.469 47.2019 176.85 52.0799C185.311 56.8752 192.04 63.4481 197.036 71.7986C202.032 80.0664 204.53 88.9543 204.53 98.4623ZM208.359 139.758C205.629 133.797 205.378 126.713 208.191 120.791C211.553 113.716 213.233 106.273 213.233 98.4623C213.233 87.3008 210.332 76.9247 204.53 67.334C198.809 57.6607 191.073 50.0129 181.322 44.3908C171.572 38.686 161.096 35.8337 149.895 35.8337H51.1179C43.1862 35.8337 36.7562 42.2636 36.7562 50.1954V227.925C36.7562 230.329 34.808 232.277 32.4047 232.277C30.0015 232.277 28.0532 230.329 28.0532 227.925V41.2661C28.0532 33.3344 34.4832 26.9044 42.4149 26.9044H149.895C162.627 26.9044 174.513 30.1289 185.553 36.5778C196.673 43.0266 205.497 51.7905 212.024 62.8694C218.632 73.8656 221.936 85.7299 221.936 98.4623C221.936 106.894 220.327 114.609 217.108 121.608C214.538 127.195 214.469 133.759 217.136 139.299C220.336 145.947 221.936 152.673 221.936 159.479C221.936 170.558 220.002 180.727 216.134 189.987C212.266 199.164 207.028 206.812 200.42 212.93C193.893 219.048 186.278 223.802 177.575 227.192C168.872 230.582 159.645 232.277 149.895 232.277H98.2737C95.8079 232.277 93.809 230.278 93.809 227.812C93.809 225.346 95.8079 223.348 98.2736 223.348H149.895C158.356 223.348 166.455 221.735 174.191 218.511C181.927 215.204 188.655 210.739 194.377 205.117C200.098 199.495 204.651 192.715 208.036 184.778C211.501 176.841 213.233 168.408 213.233 159.479C213.233 155.51 212.307 150.756 210.453 145.217C209.856 143.322 209.157 141.502 208.359 139.758Z" fill="url(#paint0_linear_264_2865)"/>
<path d="M123.741 87.487V122.292C123.741 126.58 120.199 130.057 115.831 130.057H68.5074C64.1395 130.057 60.5979 126.58 60.5979 122.292V87.487C60.5979 83.1989 64.1395 79.7225 68.5074 79.7225H115.831C120.199 79.7225 123.741 83.1989 123.741 87.487Z" fill="#FFCC3B"/>
<path d="M123.741 87.487V122.292C123.741 126.58 120.199 130.057 115.831 130.057H68.5074C64.1395 130.057 60.5979 126.58 60.5979 122.292V87.487C60.5979 83.1989 64.1395 79.7225 68.5074 79.7225H115.831C120.199 79.7225 123.741 83.1989 123.741 87.487Z" fill="#FFCC3B"/>
<path d="M60.5979 87.487V89.9934H123.741V87.487C123.741 83.1989 120.199 79.7225 115.831 79.7225H68.5074C64.1395 79.7225 60.5979 83.1989 60.5979 87.487Z" fill="#EFB525"/>
<path d="M81.9834 109.331V100.447C81.9834 98.4888 80.3667 96.9012 78.3714 96.9012H60.5979V112.876H78.3714C80.366 112.876 81.9834 111.29 81.9834 109.331Z" fill="#FFD876"/>
<path d="M102.355 100.447V109.331C102.355 111.29 103.972 112.876 105.967 112.876H123.741V96.9012H105.967C103.972 96.9012 102.355 98.4888 102.355 100.447Z" fill="#FFD876"/>
<path d="M59.7112 112.838V122.653C59.7701 124.981 61.4265 129.815 67.5806 130.522H85.7951M59.7112 112.838V96.8344M59.7112 112.838H65.3701M59.7112 96.8344V87.3734C60.4185 81.2901 65.2522 79.7103 67.5806 79.6809H85.7951M59.7112 96.8344H76.8647C77.3246 96.7739 77.7359 96.7815 78.1026 96.841M122.161 112.838C122.147 118.405 122.019 122.874 121.694 124.421C120.845 128.453 115.327 130.169 112.675 130.522H95.3445M122.161 112.838H103.833M122.161 112.838C122.173 107.913 122.096 102.127 121.988 96.746M103.833 112.838C102.831 112.809 100.809 112.078 100.738 109.39V100.194C100.62 99.3691 101.074 97.5241 103.833 96.746M103.833 112.838C103.125 121.68 97.8792 125.129 95.3445 125.748V130.522M103.833 96.746C103.921 93.386 102.347 86.1179 95.3445 83.925V79.6809M103.833 96.746H109.05M121.988 96.746C121.9 92.3586 121.792 88.2399 121.694 85.0745C120.603 83.0408 117.591 79.115 114.266 79.6809H95.3445M121.988 96.746H114.266M95.3445 130.522H85.7951M95.3445 79.6809H85.7951M85.7951 130.522V125.748C82.9657 124.913 77.466 121.124 78.1026 112.647M78.1026 112.647C77.6271 112.786 77.1855 112.838 76.8647 112.838H71.2942M78.1026 112.647C79.1122 112.352 80.2743 111.669 80.7552 110.274V99.487C80.6086 98.6319 79.8788 97.1289 78.1026 96.841M78.1026 96.841C77.9847 93.5672 79.3581 86.4008 85.7951 83.925V79.6809" stroke="black" stroke-width="1.23788"/>
<path d="M63.1125 47.9074C64.3396 47.9074 65.3998 48.1388 66.2933 48.6017C67.1974 49.0537 67.8863 49.705 68.36 50.5553C68.8443 51.4057 69.0865 52.4068 69.0865 53.5585C69.0865 54.7103 68.8443 55.7114 68.36 56.5617C67.8863 57.4013 67.1974 58.0472 66.2933 58.4993C65.3998 58.9406 64.3396 59.1613 63.1125 59.1613H59.6087V47.9074H63.1125ZM63.1125 57.9503C64.5656 57.9503 65.6743 57.5682 66.4386 56.8039C67.2028 56.0289 67.5849 54.9471 67.5849 53.5585C67.5849 52.1592 67.1974 51.0666 66.4224 50.2809C65.6582 49.4951 64.5548 49.1022 63.1125 49.1022H61.078V57.9503H63.1125ZM79.0977 54.3981C79.0977 54.678 79.0815 54.974 79.0492 55.2862H71.9772C72.031 56.1581 72.327 56.8416 72.8653 57.3367C73.4142 57.8211 74.0762 58.0633 74.8512 58.0633C75.4863 58.0633 76.0138 57.918 76.4336 57.6274C76.8641 57.326 77.1655 56.9277 77.3377 56.4326H78.9201C78.6833 57.2829 78.2096 57.9772 77.4992 58.5154C76.7888 59.0428 75.9061 59.3066 74.8512 59.3066C74.0116 59.3066 73.2581 59.1182 72.5908 58.7415C71.9342 58.3647 71.4175 57.8319 71.0407 57.143C70.664 56.4433 70.4756 55.636 70.4756 54.7211C70.4756 53.8061 70.6586 53.0042 71.0246 52.3153C71.3906 51.6264 71.9019 51.0989 72.5585 50.7329C73.2259 50.3562 73.9901 50.1678 74.8512 50.1678C75.6908 50.1678 76.4336 50.3508 77.0794 50.7168C77.7253 51.0828 78.2204 51.5887 78.5649 52.2345C78.9201 52.8696 79.0977 53.5908 79.0977 54.3981ZM77.5799 54.0914C77.5799 53.5316 77.4561 53.0526 77.2086 52.6543C76.961 52.2453 76.6219 51.9385 76.1914 51.734C75.7716 51.5187 75.3033 51.4111 74.7866 51.4111C74.0439 51.4111 73.4088 51.6479 72.8814 52.1215C72.3647 52.5951 72.0687 53.2518 71.9934 54.0914H77.5799ZM82.5064 51.9601C82.8078 51.4326 83.2491 51.0021 83.8304 50.6684C84.4117 50.3347 85.0737 50.1678 85.8164 50.1678C86.6129 50.1678 87.3287 50.3562 87.9638 50.7329C88.5989 51.1097 89.0994 51.6425 89.4654 52.3314C89.8314 53.0096 90.0144 53.8007 90.0144 54.7049C90.0144 55.5983 89.8314 56.3949 89.4654 57.0945C89.0994 57.7942 88.5935 58.3378 87.9477 58.7253C87.3126 59.1128 86.6022 59.3066 85.8164 59.3066C85.0521 59.3066 84.3794 59.1397 83.7981 58.806C83.2276 58.4724 82.797 58.0472 82.5064 57.5305V59.1613H81.0371V47.2131H82.5064V51.9601ZM88.5128 54.7049C88.5128 54.0375 88.3782 53.4563 88.1091 52.9611C87.84 52.466 87.4741 52.0892 87.0112 51.8309C86.5591 51.5726 86.0586 51.4434 85.5096 51.4434C84.9714 51.4434 84.4709 51.5779 84.008 51.847C83.5559 52.1054 83.1899 52.4875 82.9101 52.9934C82.641 53.4886 82.5064 54.0644 82.5064 54.7211C82.5064 55.3884 82.641 55.9751 82.9101 56.481C83.1899 56.9761 83.5559 57.3583 84.008 57.6274C84.4709 57.8857 84.9714 58.0149 85.5096 58.0149C86.0586 58.0149 86.5591 57.8857 87.0112 57.6274C87.4741 57.3583 87.84 56.9761 88.1091 56.481C88.3782 55.9751 88.5128 55.383 88.5128 54.7049ZM92.7073 48.8761C92.4274 48.8761 92.1906 48.7793 91.9968 48.5855C91.8031 48.3918 91.7062 48.1549 91.7062 47.8751C91.7062 47.5952 91.8031 47.3584 91.9968 47.1646C92.1906 46.9709 92.4274 46.874 92.7073 46.874C92.9764 46.874 93.2024 46.9709 93.3854 47.1646C93.5792 47.3584 93.676 47.5952 93.676 47.8751C93.676 48.1549 93.5792 48.3918 93.3854 48.5855C93.2024 48.7793 92.9764 48.8761 92.7073 48.8761ZM93.4177 50.3131V59.1613H91.9484V50.3131H93.4177ZM97.7141 51.5241V56.7393C97.7141 57.1699 97.8056 57.4767 97.9886 57.6597C98.1716 57.8319 98.4891 57.918 98.9412 57.918H100.023V59.1613H98.699C97.8809 59.1613 97.2674 58.9729 96.8583 58.5961C96.4493 58.2194 96.2448 57.6005 96.2448 56.7393V51.5241H95.0984V50.3131H96.2448V48.085H97.7141V50.3131H100.023V51.5241H97.7141Z" fill="white"/>
<path d="M65.7766 144.556H69.2076L68.8874 151.235L75.2463 148.765L76.39 152.059L69.7566 153.843L73.9654 159.013L71.129 161.117L67.5607 155.536L63.9467 161.117L61.0646 159.104L65.4106 153.797L58.9602 152.105L60.0124 148.765L66.1426 151.19L65.7766 144.556ZM84.3615 144.556H87.7926L87.4723 151.235L93.8312 148.765L94.9749 152.059L88.3415 153.843L92.5503 159.013L89.714 161.117L86.1457 155.536L82.5316 161.117L79.6495 159.104L83.9955 153.797L77.5451 152.105L78.5973 148.765L84.7275 151.19L84.3615 144.556ZM102.946 144.556H106.377L106.057 151.235L112.416 148.765L113.56 152.059L106.926 153.843L111.135 159.013L108.299 161.117L104.731 155.536L101.117 161.117L98.2344 159.104L102.58 153.797L96.13 152.105L97.1822 148.765L103.312 151.19L102.946 144.556ZM121.531 144.556H124.962L124.642 151.235L131.001 148.765L132.145 152.059L125.511 153.843L129.72 159.013L126.884 161.117L123.316 155.536L119.701 161.117L116.819 159.104L121.165 153.797L114.715 152.105L115.767 148.765L121.897 151.19L121.531 144.556ZM163.079 144.556H166.51L166.19 151.235L172.549 148.765L173.693 152.059L167.059 153.843L171.268 159.013L168.432 161.117L164.864 155.536L161.249 161.117L158.367 159.104L162.713 153.797L156.263 152.105L157.315 148.765L163.445 151.19L163.079 144.556ZM181.664 144.556H185.095L184.775 151.235L191.134 148.765L192.278 152.059L185.644 153.843L189.853 159.013L187.017 161.117L183.448 155.536L179.834 161.117L176.952 159.104L181.298 153.797L174.848 152.105L175.9 148.765L182.03 151.19L181.664 144.556ZM200.249 144.556H203.68L203.36 151.235L209.719 148.765L210.863 152.059L204.229 153.843L208.438 159.013L205.602 161.117L202.033 155.536L198.419 161.117L195.537 159.104L199.883 153.797L193.433 152.105L194.485 148.765L200.615 151.19L200.249 144.556ZM218.834 144.556H222.265L221.945 151.235L228.304 148.765L229.448 152.059L222.814 153.843L227.023 159.013L224.187 161.117L220.618 155.536L217.004 161.117L214.122 159.104L218.468 153.797L212.018 152.105L213.07 148.765L219.2 151.19L218.834 144.556ZM260.382 144.556H263.813L263.493 151.235L269.852 148.765L270.996 152.059L264.362 153.843L268.571 159.013L265.735 161.117L262.166 155.536L258.552 161.117L255.67 159.104L260.016 153.797L253.566 152.105L254.618 148.765L260.748 151.19L260.382 144.556ZM278.967 144.556H282.398L282.078 151.235L288.437 148.765L289.581 152.059L282.947 153.843L287.156 159.013L284.32 161.117L280.751 155.536L277.137 161.117L274.255 159.104L278.601 153.797L272.151 152.105L273.203 148.765L279.333 151.19L278.967 144.556ZM297.552 144.556H300.983L300.663 151.235L307.022 148.765L308.165 152.059L301.532 153.843L305.741 159.013L302.905 161.117L299.336 155.536L295.722 161.117L292.84 159.104L297.186 153.797L290.736 152.105L291.788 148.765L297.918 151.19L297.552 144.556ZM316.137 144.556H319.568L319.248 151.235L325.607 148.765L326.75 152.059L320.117 153.843L324.326 159.013L321.489 161.117L317.921 155.536L314.307 161.117L311.425 159.104L315.771 153.797L309.321 152.105L310.373 148.765L316.503 151.19L316.137 144.556Z" fill="white"/>
<g clip-path="url(#clip0_264_2865)">
<path d="M379.212 83.7206C381.318 85.5633 384.425 90.3545 380.002 94.7772M389.479 75.0332C395.008 79.7718 402.905 92.092 390.269 103.465M384.741 79.7718C388.426 82.9308 393.586 91.1443 384.741 98.726" stroke="white" stroke-width="2.69103" stroke-linecap="round"/>
</g>
<path d="M208.729 177.673C209.49 177.673 210.179 177.788 210.796 178.017C211.413 178.247 211.944 178.62 212.389 179.137C212.848 179.654 213.2 180.342 213.444 181.204C213.688 182.05 213.81 183.098 213.81 184.347C213.81 185.581 213.688 186.629 213.444 187.49C213.2 188.337 212.848 189.018 212.389 189.535C211.944 190.052 211.413 190.425 210.796 190.654C210.179 190.884 209.49 190.999 208.729 190.999C207.983 190.999 207.301 190.884 206.684 190.654C206.067 190.425 205.529 190.052 205.07 189.535C204.625 189.018 204.28 188.337 204.036 187.49C203.792 186.629 203.67 185.581 203.67 184.347C203.67 183.098 203.792 182.05 204.036 181.204C204.28 180.342 204.625 179.654 205.07 179.137C205.529 178.62 206.067 178.247 206.684 178.017C207.301 177.788 207.983 177.673 208.729 177.673ZM208.751 179.137C208.306 179.137 207.883 179.216 207.481 179.374C207.093 179.517 206.756 179.776 206.469 180.149C206.182 180.522 205.952 181.053 205.78 181.742C205.622 182.416 205.543 183.285 205.543 184.347C205.543 185.394 205.622 186.263 205.78 186.952C205.952 187.626 206.182 188.15 206.469 188.523C206.756 188.896 207.093 189.162 207.481 189.32C207.883 189.463 208.306 189.535 208.751 189.535C209.196 189.535 209.612 189.463 210 189.32C210.387 189.162 210.724 188.896 211.011 188.523C211.313 188.15 211.542 187.626 211.7 186.952C211.872 186.263 211.959 185.394 211.959 184.347C211.959 183.285 211.872 182.416 211.7 181.742C211.542 181.053 211.313 180.522 211.011 180.149C210.724 179.776 210.387 179.517 210 179.374C209.612 179.216 209.196 179.137 208.751 179.137ZM224.827 178.922C223.722 180.271 222.846 181.663 222.2 183.098C221.554 184.519 221.081 185.882 220.779 187.188C220.478 188.494 220.291 189.657 220.22 190.676H218.454C218.584 189.6 218.799 188.459 219.1 187.253C219.416 186.033 219.854 184.77 220.413 183.464C220.973 182.158 221.669 180.83 222.502 179.481H216.732L216.431 180.816L214.945 180.493L215.419 177.996H224.827V178.922ZM231.753 177.996H233.324L226.285 193.496H224.692L231.753 177.996ZM234.07 190.676L233.489 188.954C234.594 187.949 235.627 187.074 236.589 186.327C237.55 185.581 238.361 184.885 239.021 184.239C239.524 183.765 239.911 183.306 240.184 182.861C240.471 182.402 240.622 181.928 240.636 181.44C240.65 180.68 240.406 180.113 239.904 179.74C239.402 179.352 238.799 179.158 238.096 179.158C237.593 179.158 237.07 179.259 236.524 179.46C235.993 179.661 235.512 179.969 235.082 180.386L234.005 179.374C234.594 178.742 235.261 178.283 236.007 177.996C236.754 177.709 237.493 177.565 238.225 177.565C238.971 177.565 239.667 177.709 240.313 177.996C240.959 178.283 241.476 178.699 241.863 179.245C242.265 179.776 242.466 180.436 242.466 181.225C242.466 181.9 242.251 182.56 241.82 183.206C241.39 183.852 240.837 184.497 240.162 185.143C239.474 185.803 238.706 186.471 237.859 187.145C237.012 187.806 236.187 188.487 235.383 189.191H241.282L242.401 187.404L243.628 188.05L242.1 190.676H234.07ZM253.987 178.922C252.881 180.271 252.006 181.663 251.36 183.098C250.714 184.519 250.241 185.882 249.939 187.188C249.638 188.494 249.451 189.657 249.38 190.676H247.614C247.743 189.6 247.959 188.459 248.26 187.253C248.576 186.033 249.014 184.77 249.573 183.464C250.133 182.158 250.829 180.83 251.662 179.481H245.892L245.591 180.816L244.105 180.493L244.579 177.996H253.987V178.922Z" fill="white"/>
<path d="M159.516 176.5V178.694H161.908V179.401H159.516V181.661H162.191V182.367H158.659V175.793H162.191V176.5H159.516ZM166.172 179.09L168.187 182.367H167.217L165.644 179.806L164.147 182.367H163.195L165.202 179.09L163.186 175.803H164.147L165.729 178.374L167.236 175.803H168.197L166.172 179.09ZM173.726 177.724C173.726 178.27 173.538 178.726 173.161 179.09C172.791 179.448 172.223 179.627 171.456 179.627H170.194V182.367H169.337V175.803H171.456C172.197 175.803 172.759 175.982 173.142 176.34C173.532 176.697 173.726 177.159 173.726 177.724ZM171.456 178.92C171.934 178.92 172.285 178.817 172.511 178.609C172.737 178.402 172.85 178.107 172.85 177.724C172.85 176.914 172.386 176.509 171.456 176.509H170.194V178.92H171.456ZM175.649 175.803V182.367H174.792V175.803H175.649ZM180.566 182.367L179.003 179.683H177.967V182.367H177.109V175.803H179.229C179.725 175.803 180.142 175.887 180.481 176.057C180.827 176.226 181.084 176.456 181.254 176.745C181.423 177.033 181.508 177.363 181.508 177.733C181.508 178.186 181.376 178.584 181.112 178.93C180.855 179.275 180.466 179.504 179.944 179.617L181.593 182.367H180.566ZM177.967 178.996H179.229C179.693 178.996 180.042 178.883 180.274 178.657C180.506 178.424 180.623 178.117 180.623 177.733C180.623 177.344 180.506 177.043 180.274 176.829C180.048 176.616 179.7 176.509 179.229 176.509H177.967V178.996ZM183.697 176.5V178.694H186.089V179.401H183.697V181.661H186.372V182.367H182.84V175.793H186.372V176.5H183.697ZM189.75 182.433C189.317 182.433 188.928 182.358 188.582 182.207C188.243 182.05 187.976 181.837 187.782 181.567C187.587 181.291 187.487 180.973 187.48 180.616H188.394C188.425 180.923 188.551 181.184 188.771 181.397C188.997 181.605 189.323 181.708 189.75 181.708C190.158 181.708 190.479 181.608 190.711 181.407C190.949 181.2 191.069 180.936 191.069 180.616C191.069 180.364 191 180.16 190.862 180.003C190.723 179.846 190.551 179.727 190.344 179.645C190.136 179.564 189.857 179.476 189.505 179.382C189.072 179.269 188.724 179.156 188.46 179.043C188.202 178.93 187.979 178.754 187.791 178.515C187.609 178.27 187.518 177.944 187.518 177.536C187.518 177.178 187.609 176.861 187.791 176.584C187.973 176.308 188.227 176.095 188.554 175.944C188.887 175.793 189.267 175.718 189.694 175.718C190.309 175.718 190.811 175.872 191.201 176.179C191.596 176.487 191.819 176.895 191.869 177.404H190.927C190.896 177.153 190.764 176.933 190.532 176.745C190.3 176.55 189.992 176.453 189.609 176.453C189.251 176.453 188.959 176.547 188.733 176.735C188.507 176.917 188.394 177.175 188.394 177.507C188.394 177.746 188.46 177.941 188.592 178.091C188.73 178.242 188.896 178.358 189.091 178.44C189.292 178.515 189.571 178.603 189.929 178.704C190.362 178.823 190.711 178.942 190.975 179.062C191.238 179.175 191.464 179.353 191.653 179.598C191.841 179.837 191.935 180.163 191.935 180.578C191.935 180.898 191.85 181.2 191.681 181.482C191.511 181.765 191.26 181.994 190.927 182.17C190.595 182.345 190.202 182.433 189.75 182.433ZM159.516 185.5V187.694H161.908V188.401H159.516V190.661H162.191V191.367H158.659V184.793H162.191V185.5H159.516ZM168.649 191.367H167.792L164.345 186.14V191.367H163.487V184.793H164.345L167.792 190.011V184.793H168.649V191.367ZM172.154 184.803C172.87 184.803 173.488 184.938 174.009 185.208C174.537 185.471 174.939 185.851 175.215 186.347C175.497 186.843 175.639 187.427 175.639 188.099C175.639 188.771 175.497 189.355 175.215 189.851C174.939 190.341 174.537 190.718 174.009 190.981C173.488 191.239 172.87 191.367 172.154 191.367H170.11V184.803H172.154ZM172.154 190.661C173.001 190.661 173.648 190.438 174.094 189.992C174.54 189.54 174.763 188.909 174.763 188.099C174.763 187.283 174.537 186.646 174.085 186.187C173.639 185.729 172.995 185.5 172.154 185.5H170.967V190.661H172.154ZM182.256 191.433C181.647 191.433 181.092 191.292 180.589 191.01C180.087 190.721 179.688 190.322 179.393 189.813C179.104 189.298 178.96 188.721 178.96 188.08C178.96 187.44 179.104 186.865 179.393 186.357C179.688 185.842 180.087 185.443 180.589 185.161C181.092 184.872 181.647 184.727 182.256 184.727C182.872 184.727 183.431 184.872 183.933 185.161C184.435 185.443 184.831 185.839 185.12 186.347C185.409 186.856 185.553 187.434 185.553 188.08C185.553 188.727 185.409 189.305 185.12 189.813C184.831 190.322 184.435 190.721 183.933 191.01C183.431 191.292 182.872 191.433 182.256 191.433ZM182.256 190.689C182.715 190.689 183.126 190.583 183.49 190.369C183.861 190.156 184.15 189.851 184.357 189.455C184.57 189.06 184.677 188.602 184.677 188.08C184.677 187.553 184.57 187.095 184.357 186.705C184.15 186.31 183.864 186.005 183.5 185.792C183.136 185.578 182.721 185.471 182.256 185.471C181.792 185.471 181.377 185.578 181.013 185.792C180.649 186.005 180.36 186.31 180.147 186.705C179.939 187.095 179.836 187.553 179.836 188.08C179.836 188.602 179.939 189.06 180.147 189.455C180.36 189.851 180.649 190.156 181.013 190.369C181.384 190.583 181.798 190.689 182.256 190.689ZM190.395 184.803V185.5H187.542V187.713H189.859V188.41H187.542V191.367H186.684V184.803H190.395Z" fill="white"/>
<path d="M33.5997 208.915L45.1228 218.998C46.483 220.188 48.6106 219.221 48.6106 217.415V197.249C48.6109 196.845 48.4948 196.449 48.276 196.11C48.0572 195.77 47.7452 195.5 47.3771 195.333C47.0091 195.166 46.6007 195.109 46.2009 195.168C45.8011 195.227 45.4267 195.4 45.1228 195.666L33.6018 205.749C33.376 205.946 33.195 206.19 33.071 206.463C32.947 206.736 32.8828 207.032 32.8828 207.332C32.8828 207.632 32.947 207.929 33.071 208.202C33.195 208.475 33.376 208.718 33.6018 208.915H33.5997Z" fill="white"/>
<g clip-path="url(#clip1_264_2865)">
<path d="M360.506 202.495L356.825 224.096H362.712L366.396 202.495H360.506Z" fill="white"/>
<path d="M351.889 202.519L346.123 217.25L345.508 215.026C344.371 212.346 341.143 208.497 337.353 206.071L342.625 224.085L348.855 224.075L358.126 202.515L351.889 202.519Z" fill="white"/>
<path d="M343.273 204.065C342.931 202.749 341.939 202.357 340.708 202.31H331.581L331.505 202.74C338.608 204.463 343.308 208.615 345.258 213.607L343.273 204.065Z" fill="white"/>
<path d="M378.328 206.636C380.254 206.606 381.65 207.027 382.734 207.463L383.266 207.713L384.062 203.031C382.896 202.593 381.069 202.124 378.788 202.124C372.971 202.124 368.871 205.054 368.839 209.253C368.801 212.355 371.76 214.088 373.995 215.122C376.289 216.182 377.058 216.855 377.047 217.802C377.029 219.248 375.218 219.911 373.527 219.911C371.169 219.911 369.917 219.585 367.983 218.78L367.225 218.435L366.396 223.269C367.774 223.874 370.317 224.393 372.956 224.42C379.144 224.42 383.166 221.525 383.208 217.039C383.234 214.584 381.664 212.711 378.262 211.174C376.202 210.172 374.942 209.506 374.955 208.494C374.955 207.596 376.024 206.636 378.328 206.636Z" fill="white"/>
<path d="M399.171 202.519H394.622C393.209 202.519 392.159 202.904 391.538 204.312L382.796 224.108H388.979C388.979 224.108 389.987 221.446 390.216 220.863C390.893 220.863 396.899 220.872 397.755 220.872C397.931 221.627 398.473 224.108 398.473 224.108H403.934L399.171 202.519ZM391.91 216.442C392.395 215.202 394.256 210.405 394.256 210.405C394.224 210.464 394.736 209.156 395.04 208.343L395.437 210.205C395.437 210.205 396.565 215.362 396.801 216.442H391.91Z" fill="white"/>
</g>
<defs>
<filter id="filter0_d_264_2865" x="0" y="0.287354" width="455" height="273.355" filterUnits="userSpaceOnUse" color-interpolation-filters="sRGB">
<feFlood flood-opacity="0" result="BackgroundImageFix"/>
<feColorMatrix in="SourceAlpha" type="matrix" values="0 0 0 0 0 0 0 0 0 0 0 0 0 0 0 0 0 0 127 0" result="hardAlpha"/>
<feOffset dx="7" dy="7"/>
<feGaussianBlur stdDeviation="12.5"/>
<feComposite in2="hardAlpha" operator="out"/>
<feColorMatrix type="matrix" values="0 0 0 0 0 0 0 0 0 0 0 0 0 0 0 0 0 0 0.25 0"/>
<feBlend mode="normal" in2="BackgroundImageFix" result="effect1_dropShadow_264_2865"/>
<feBlend mode="normal" in="SourceGraphic" in2="effect1_dropShadow_264_2865" result="shape"/>
</filter>
<linearGradient id="paint0_linear_264_2865" x1="124.995" y1="26.9044" x2="38.8245" y2="239.458" gradientUnits="userSpaceOnUse">
<stop stop-color="#3C86D4"/>
<stop offset="0.553855" stop-color="#FFD876"/>
<stop offset="1" stop-color="#3C86D4" stop-opacity="0"/>
</linearGradient>
<clipPath id="clip0_264_2865">
<rect width="31.5904" height="36.3289" fill="white" transform="translate(406.854 73.4534) rotate(90)"/>
</clipPath>
<clipPath id="clip1_264_2865">
<rect width="72.4291" height="72.4291" fill="white" transform="translate(331.505 177.058)"/>
</clipPath>
</defs>
</svg>
