<svg width="317" height="275" viewBox="0 0 317 275" fill="none" xmlns="http://www.w3.org/2000/svg">
<path opacity="0.05" d="M217.394 157.231C217.394 151.924 215.813 148.386 212.651 146.617C209.621 144.848 205.141 143.964 199.212 143.964H114.859C110.801 143.964 107.511 140.674 107.511 136.616C107.511 132.558 110.801 129.268 114.859 129.268H199.212C220.82 129.268 231.623 138.589 231.623 157.231C231.623 167.708 228.659 175.26 222.73 179.887C216.801 184.513 208.962 186.826 199.212 186.826H114.859C110.801 186.826 107.511 183.536 107.511 179.478C107.511 175.42 110.801 172.13 114.859 172.13H199.212C211.333 172.13 217.394 167.164 217.394 157.231ZM99.606 267.885C99.606 271.815 96.4206 275 92.4913 275C88.5619 275 85.3765 271.815 85.3765 267.885V35.1739C85.3765 29.6511 89.8537 25.1739 95.3765 25.1739H199.212C208.171 25.1739 215.813 28.0314 222.137 33.7464C228.461 39.3253 231.623 46.3329 231.623 54.7693C231.623 65.9271 228.659 74.0234 222.73 79.058C216.801 83.9565 208.962 86.4058 199.212 86.4058H114.859C110.801 86.4058 107.511 83.1161 107.511 79.058C107.511 74.9999 110.801 71.7102 114.859 71.7102H199.212C211.333 71.7102 217.394 66.0632 217.394 54.7693C217.394 50.1429 215.681 46.537 212.256 43.9517C208.83 41.2303 204.482 39.8696 199.212 39.8696H109.606C104.083 39.8696 99.606 44.3467 99.606 49.8696V267.885ZM107.511 108.449C107.511 104.391 110.801 101.101 114.859 101.101H199.212C212.256 101.101 223.257 97.0874 232.216 89.0592C241.307 80.8949 245.853 69.465 245.853 54.7693C245.853 42.9312 241.11 32.5898 231.623 23.7452C222.269 14.9006 211.465 10.4783 199.212 10.4783H81.1471C75.6243 10.4783 71.1471 14.9554 71.1471 20.4783V267.885C71.1471 271.815 67.9618 275 64.0324 275C60.1031 275 56.9177 271.815 56.9177 267.885V5.7826C56.9177 0.259754 61.3949 -4.21739 66.9177 -4.21739H199.212C215.418 -4.21739 229.581 1.7017 241.703 13.5399C253.956 25.242 260.082 38.9851 260.082 54.7693C260.082 67.1518 257.25 77.9694 251.584 87.2222C249.995 89.8795 248.243 92.3628 246.328 94.6722C240.81 101.326 241.848 114.206 247.844 120.433C256.003 128.905 260.082 140.491 260.082 155.19C260.082 173.695 254.153 188.527 242.295 199.685C230.438 210.707 216.076 216.217 199.212 216.217H114.859C110.801 216.217 107.511 212.928 107.511 208.87C107.511 204.812 110.801 201.522 114.859 201.522H199.212C212.256 201.522 223.257 197.508 232.216 189.479C241.307 181.315 245.853 169.885 245.853 155.19C245.853 145.256 242.427 136.48 235.576 128.86C228.893 121.427 219.138 117.036 206.312 115.689C205.666 115.621 205.013 115.631 204.365 115.673C203.089 115.756 201.371 115.797 199.212 115.797H114.859C110.801 115.797 107.511 112.507 107.511 108.449ZM288.541 54.7693C288.541 71.0587 283.772 86.005 274.235 99.6081C271.397 103.656 271.434 109.127 274.333 113.132C283.805 126.212 288.541 140.232 288.541 155.19C288.541 172.199 284.391 187.711 276.09 201.726C267.922 215.605 256.986 226.423 243.284 234.179C229.713 241.799 215.022 245.609 199.212 245.609H114.859C110.801 245.609 107.511 242.319 107.511 238.261C107.511 234.203 110.801 230.913 114.859 230.913H199.212C219.766 230.913 237.421 223.837 252.177 209.686C266.933 195.399 274.312 177.233 274.312 155.19C274.312 147.298 272.335 138.589 268.383 129.064C266.297 123.79 263.76 119.206 260.771 115.311C257.003 110.399 256.498 103.116 260.238 98.1824C269.621 85.8064 274.312 71.3354 274.312 54.7693C274.312 34.903 266.802 17.69 251.782 3.13045C236.762 -11.5652 219.239 -18.913 199.212 -18.913H52.6883C47.1654 -18.913 42.6883 -14.4359 42.6883 -8.91304V267.885C42.6883 271.815 39.5029 275 35.5736 275C31.6442 275 28.4589 271.815 28.4589 267.885V-23.6087C28.4589 -29.1315 32.936 -33.6087 38.4589 -33.6087H199.212C214.891 -33.6087 229.581 -29.5946 243.284 -21.5664C257.118 -13.6743 268.119 -2.85667 276.288 10.8865C284.457 24.4936 288.541 39.1212 288.541 54.7693ZM289.724 113.445C287.253 109.634 287.086 104.688 289.47 100.823C298.337 86.4492 302.771 71.098 302.771 54.7693C302.771 36.3998 298.027 19.3229 288.541 3.53865C279.187 -12.3816 266.538 -24.9682 250.596 -34.221C234.654 -43.6099 217.526 -48.3043 199.212 -48.3043H24.2294C18.7066 -48.3043 14.2294 -43.8272 14.2294 -38.3043V267.885C14.2294 271.815 11.0441 275 7.11471 275C3.18536 275 0 271.815 0 267.885V-53C0 -58.5229 4.47715 -63 10 -63H199.212C220.029 -63 239.463 -57.6932 257.513 -47.0797C275.695 -36.4662 290.122 -22.0427 300.794 -3.80918C311.598 14.2882 317 33.8144 317 54.7693C317 72.2094 312.843 87.7875 304.53 101.504C302.323 105.146 302.275 109.745 304.486 113.384C312.829 127.111 317 141.047 317 155.19C317 173.423 313.838 190.16 307.514 205.4C301.189 220.504 292.625 233.09 281.822 243.159C271.15 253.229 258.699 261.053 244.469 266.632C230.24 272.211 215.154 275 199.212 275H114.859C110.801 275 107.511 271.71 107.511 267.652C107.511 263.594 110.801 260.304 114.859 260.304H199.212C213.046 260.304 226.287 257.651 238.936 252.344C251.584 246.901 262.586 239.554 271.94 230.301C281.295 221.048 288.739 209.89 294.272 196.827C299.938 183.765 302.771 169.885 302.771 155.19C302.771 148.658 301.255 140.834 298.225 131.717C296.141 125.064 293.307 118.973 289.724 113.445Z" fill="#F8EEE2"/>
</svg>
