<svg width="10" height="16" viewBox="0 0 10 16" fill="none" xmlns="http://www.w3.org/2000/svg">
<mask id="mask0_47_2779" style="mask-type:alpha" maskUnits="userSpaceOnUse" x="0" y="0" width="10" height="16">
<path d="M6.08903 16V8.70218H8.77415L9.177 5.85725H6.08903V4.04118C6.08903 3.21776 6.33875 2.65661 7.63505 2.65661L9.28568 2.65599V0.111384C9.00023 0.0775562 8.02037 0 6.87991 0C4.49845 0 2.86807 1.32557 2.86807 3.75942V5.85725H0.174805V8.70218H2.86807V16H6.08903Z" fill="white"/>
</mask>
<g mask="url(#mask0_47_2779)">
<path d="M6.08903 16V8.70218H8.77415L9.177 5.85725H6.08903V4.04118C6.08903 3.21776 6.33875 2.65661 7.63505 2.65661L9.28568 2.65599V0.111384C9.00023 0.0775562 8.02037 0 6.87991 0C4.49845 0 2.86807 1.32557 2.86807 3.75942V5.85725H0.174805V8.70218H2.86807V16H6.08903Z" fill="#F7C873"/>
</g>
</svg>
