<svg width="16" height="14" viewBox="0 0 16 14" fill="none" xmlns="http://www.w3.org/2000/svg">
<mask id="mask0_47_2787" style="mask-type:alpha" maskUnits="userSpaceOnUse" x="0" y="0" width="16" height="14">
<path d="M8.34944 5.6V8.4H12.6094C11.9875 10.0296 10.313 11.2 8.34944 11.2C5.8588 11.2 3.83196 9.3156 3.83196 7C3.83196 4.6844 5.8588 2.8 8.34944 2.8C9.42912 2.8 10.4681 3.1598 11.2753 3.8136L13.2539 1.7024C11.8987 0.6048 10.1579 0 8.34944 0C4.19788 0 0.820312 3.1402 0.820312 7C0.820312 10.8598 4.19788 14 8.34944 14C12.501 14 15.8786 10.8598 15.8786 7V5.6H8.34944Z" fill="white"/>
</mask>
<g mask="url(#mask0_47_2787)">
<path d="M8.34944 5.6V8.4H12.6094C11.9875 10.0296 10.313 11.2 8.34944 11.2C5.8588 11.2 3.83196 9.3156 3.83196 7C3.83196 4.6844 5.8588 2.8 8.34944 2.8C9.42912 2.8 10.4681 3.1598 11.2753 3.8136L13.2539 1.7024C11.8987 0.6048 10.1579 0 8.34944 0C4.19788 0 0.820312 3.1402 0.820312 7C0.820312 10.8598 4.19788 14 8.34944 14C12.501 14 15.8786 10.8598 15.8786 7V5.6H8.34944Z" fill="#F7C873"/>
</g>
</svg>
