<svg width="19" height="14" viewBox="0 0 19 14" fill="none" xmlns="http://www.w3.org/2000/svg">
<mask id="mask0_47_2783" style="mask-type:alpha" maskUnits="userSpaceOnUse" x="0" y="0" width="19" height="14">
<path d="M18.285 1.63381C17.612 1.91106 16.8899 2.09908 16.1312 2.18303C16.9059 1.75172 17.4989 1.06761 17.7799 0.254944C17.0533 0.654361 16.2511 0.944389 15.3965 1.10161C14.7121 0.422806 13.7386 0 12.6588 0C10.5873 0 8.90764 1.56158 8.90764 3.48647C8.90764 3.75947 8.94078 4.02611 9.00478 4.28108C5.88778 4.13553 3.12384 2.74711 1.27398 0.637361C0.950612 1.15153 0.766656 1.75064 0.766656 2.39017C0.766656 3.60014 1.42937 4.66775 2.43487 5.29236C1.82014 5.27325 1.24198 5.11603 0.735823 4.85469V4.89825C0.735823 6.58731 2.02925 7.99697 3.74428 8.31781C3.43005 8.39642 3.09871 8.43997 2.75593 8.43997C2.51371 8.43997 2.27947 8.41767 2.0498 8.37517C2.5274 9.76147 3.91225 10.7696 5.55303 10.7972C4.26988 11.7321 2.65196 12.2876 0.894651 12.2876C0.591873 12.2876 0.293636 12.2706 0 12.2398C1.6602 13.231 3.63119 13.8089 5.74956 13.8089C12.6497 13.8089 16.4214 8.49522 16.4214 3.88697L16.4089 3.4355C17.1458 2.94681 17.7834 2.33281 18.285 1.63381Z" fill="white"/>
</mask>
<g mask="url(#mask0_47_2783)">
<path d="M18.285 1.63381C17.612 1.91106 16.8899 2.09908 16.1312 2.18303C16.9059 1.75172 17.4989 1.06761 17.7799 0.254944C17.0533 0.654361 16.2511 0.944389 15.3965 1.10161C14.7121 0.422806 13.7386 0 12.6588 0C10.5873 0 8.90764 1.56158 8.90764 3.48647C8.90764 3.75947 8.94078 4.02611 9.00478 4.28108C5.88778 4.13553 3.12384 2.74711 1.27398 0.637361C0.950612 1.15153 0.766656 1.75064 0.766656 2.39017C0.766656 3.60014 1.42937 4.66775 2.43487 5.29236C1.82014 5.27325 1.24198 5.11603 0.735823 4.85469V4.89825C0.735823 6.58731 2.02925 7.99697 3.74428 8.31781C3.43005 8.39642 3.09871 8.43997 2.75593 8.43997C2.51371 8.43997 2.27947 8.41767 2.0498 8.37517C2.5274 9.76147 3.91225 10.7696 5.55303 10.7972C4.26988 11.7321 2.65196 12.2876 0.894651 12.2876C0.591873 12.2876 0.293636 12.2706 0 12.2398C1.6602 13.231 3.63119 13.8089 5.74956 13.8089C12.6497 13.8089 16.4214 8.49522 16.4214 3.88697L16.4089 3.4355C17.1458 2.94681 17.7834 2.33281 18.285 1.63381Z" fill="#F7C873"/>
</g>
</svg>
