<svg width="1512" height="4848" viewBox="0 0 1512 4848" fill="none" xmlns="http://www.w3.org/2000/svg">
<path opacity="0.2" d="M2358.75 3158.81C2358.75 3082.7 2336.03 3031.95 2290.6 3006.58C2247.05 2981.21 2182.69 2968.52 2097.49 2968.52H789.838C784.315 2968.52 779.838 2964.04 779.838 2958.52V2767.74C779.838 2762.22 784.315 2757.74 789.838 2757.74H2097.49C2407.98 2757.74 2563.22 2891.43 2563.22 3158.81C2563.22 3309.09 2520.62 3417.41 2435.43 3483.77C2350.23 3550.13 2237.59 3583.3 2097.49 3583.3H789.838C784.315 3583.3 779.838 3578.83 779.838 3573.3V3382.52C779.838 3377 784.315 3372.52 789.838 3372.52H2097.49C2271.67 3372.52 2358.75 3301.29 2358.75 3158.81ZM666.247 4838C666.247 4843.52 661.77 4848 656.247 4848H471.783C466.26 4848 461.783 4843.52 461.783 4838V1274.7C461.783 1269.17 466.26 1264.7 471.783 1264.7H2097.49C2226.23 1264.7 2336.03 1305.68 2426.91 1387.65C2517.78 1467.67 2563.22 1568.18 2563.22 1689.19C2563.22 1849.23 2520.62 1965.35 2435.43 2037.57C2350.23 2107.83 2237.59 2142.96 2097.49 2142.96H789.838C784.315 2142.96 779.838 2138.48 779.838 2132.96V1942.17C779.838 1936.65 784.315 1932.17 789.838 1932.17H2097.49C2271.67 1932.17 2358.75 1851.18 2358.75 1689.19C2358.75 1622.83 2334.14 1571.11 2284.92 1534.03C2235.7 1495 2173.22 1475.48 2097.49 1475.48H676.247C670.724 1475.48 666.247 1479.96 666.247 1485.48V4838ZM779.838 2363.74C779.838 2358.22 784.315 2353.74 789.838 2353.74H2097.49C2284.92 2353.74 2443 2296.16 2571.74 2181.01C2702.37 2063.91 2767.68 1899.97 2767.68 1689.19C2767.68 1519.39 2699.53 1371.06 2563.22 1244.2C2428.8 1117.34 2273.56 1053.91 2097.49 1053.91H267.319C261.796 1053.91 257.319 1058.39 257.319 1063.91V4838C257.319 4843.52 252.842 4848 247.319 4848H62.8553C57.3325 4848 52.8553 4843.52 52.8553 4838V853.13C52.8553 847.608 57.3325 843.13 62.8553 843.13H2097.49C2330.35 843.13 2533.87 928.029 2708.05 1097.83C2884.11 1265.67 2972.14 1462.79 2972.14 1689.19C2972.14 1866.79 2931.44 2021.95 2850.03 2154.67C2774.38 2280.93 2673.03 2379.82 2545.97 2451.32C2538.43 2455.56 2539.24 2466.88 2547.28 2470.06C2830.52 2582.02 2972.14 2801.84 2972.14 3129.54C2972.14 3394.97 2886.95 3607.7 2716.56 3767.74C2546.18 3925.83 2339.82 4004.87 2097.49 4004.87H789.838C784.315 4004.87 779.838 4000.39 779.838 3994.87V3804.09C779.838 3798.56 784.315 3794.09 789.838 3794.09H2097.49C2284.92 3794.09 2443 3736.51 2571.74 3621.36C2702.37 3504.26 2767.68 3340.32 2767.68 3129.54C2767.68 2987.06 2718.46 2861.18 2620.01 2751.88C2521.73 2642.78 2377.23 2579.38 2186.5 2561.68C2185.86 2561.62 2185.21 2561.63 2184.56 2561.69C2165.61 2563.58 2136.58 2564.52 2097.49 2564.52H789.838C784.315 2564.52 779.838 2560.04 779.838 2554.52V2363.74ZM3381.07 1689.19C3381.07 1959.7 3289.22 2204.39 3105.51 2423.26C3102.33 2427.05 3102.37 2432.64 3105.6 2436.38C3289.25 2649.27 3381.07 2880.32 3381.07 3129.54C3381.07 3373.5 3321.44 3595.99 3202.17 3797.01C3084.79 3996.09 2927.65 4151.25 2730.76 4262.49C2535.77 4371.79 2324.68 4426.44 2097.49 4426.44H789.838C784.315 4426.44 779.838 4421.96 779.838 4416.44V4225.65C779.838 4220.13 784.315 4215.65 789.838 4215.65H2097.49C2392.83 4215.65 2646.52 4114.16 2858.55 3911.19C3070.59 3706.26 3176.61 3445.71 3176.61 3129.54C3176.61 3016.34 3148.21 2891.43 3091.41 2754.81C3038.29 2620.73 2964.78 2517.71 2870.88 2445.75C2865.96 2441.98 2865.49 2434.68 2869.91 2430.33C3074.37 2228.86 3176.61 1981.81 3176.61 1689.19C3176.61 1404.24 3068.7 1157.35 2852.87 948.522C2637.05 737.739 2385.26 632.348 2097.49 632.348H-141.609C-147.131 632.348 -151.609 636.825 -151.609 642.348V4838C-151.609 4843.52 -156.086 4848 -161.609 4848H-346.072C-351.595 4848 -356.072 4843.52 -356.072 4838V431.565C-356.072 426.042 -351.595 421.565 -346.072 421.565H2097.49C2322.78 421.565 2533.87 479.14 2730.76 594.29C2929.55 707.488 3087.63 862.647 3205.01 1059.77C3322.38 1254.94 3381.07 1464.74 3381.07 1689.19ZM3337.67 2447.55C3334.81 2444.01 3334.67 2438.98 3337.33 2435.29C3502.8 2204.8 3585.54 1956.1 3585.54 1689.19C3585.54 1425.71 3517.38 1180.77 3381.07 954.377C3246.66 726.029 3064.91 545.498 2835.83 412.783C2606.76 278.116 2360.65 210.783 2097.49 210.783H-550.536C-556.059 210.783 -560.536 215.26 -560.536 220.783V4838C-560.536 4843.52 -565.013 4848 -570.536 4848H-755C-760.523 4848 -765 4843.52 -765 4838V9.99986C-765 4.47702 -760.523 0 -755 0H2097.49C2396.62 0 2675.86 76.116 2935.23 228.348C3196.49 380.58 3403.79 587.459 3557.14 848.985C3712.38 1108.56 3790 1388.63 3790 1689.19C3790 1973.54 3712.82 2223.37 3558.47 2438.7C3555.99 2442.17 3555.96 2446.86 3558.39 2450.36C3712.8 2672.92 3790 2899.31 3790 3129.54C3790 3391.06 3744.56 3631.12 3653.69 3849.71C3562.82 4066.35 3439.76 4246.88 3284.52 4391.3C3131.17 4535.73 2952.27 4647.95 2747.8 4727.97C2543.34 4807.99 2326.57 4848 2097.49 4848H789.838C784.315 4848 779.838 4843.52 779.838 4838V4647.22C779.838 4641.69 784.315 4637.22 789.838 4637.22H2097.49C2296.28 4637.22 2486.54 4599.16 2668.29 4523.04C2850.03 4444.98 3008.11 4339.58 3142.53 4206.87C3276.95 4074.15 3383.91 3914.12 3463.43 3726.75C3544.83 3539.39 3585.54 3340.32 3585.54 3129.54C3585.54 3035.86 3563.76 2923.63 3520.22 2792.87C3479.39 2662.76 3418.54 2547.65 3337.67 2447.55Z" fill="#07617D"/>
</svg>
